<?xml version="1.0" encoding="UTF-8" standalone="no"?>
<!-- Generator: Adobe Illustrator 19.0.0, SVG Export Plug-In . SVG Version: 6.00 Build 0)  -->

<svg
   xmlns:dc="http://purl.org/dc/elements/1.1/"
   xmlns:cc="http://creativecommons.org/ns#"
   xmlns:rdf="http://www.w3.org/1999/02/22-rdf-syntax-ns#"
   xmlns:svg="http://www.w3.org/2000/svg"
   xmlns="http://www.w3.org/2000/svg"
   xmlns:sodipodi="http://sodipodi.sourceforge.net/DTD/sodipodi-0.dtd"
   xmlns:inkscape="http://www.inkscape.org/namespaces/inkscape"
   version="1.1"
   id="Capa_1"
   x="0px"
   y="0px"
   viewBox="0 0 511.95801 318.29001"
   xml:space="preserve"
   sodipodi:docname="exit.svg"
   width="511.95801"
   height="318.29001"
   inkscape:version="0.92.3 (2405546, 2018-03-11)"><metadata
   id="metadata73"><rdf:RDF><cc:Work
       rdf:about=""><dc:format>image/svg+xml</dc:format><dc:type
         rdf:resource="http://purl.org/dc/dcmitype/StillImage" /></cc:Work></rdf:RDF></metadata><defs
   id="defs71" /><sodipodi:namedview
   pagecolor="#ffffff"
   bordercolor="#666666"
   borderopacity="1"
   objecttolerance="10"
   gridtolerance="10"
   guidetolerance="10"
   inkscape:pageopacity="0"
   inkscape:pageshadow="2"
   inkscape:window-width="1920"
   inkscape:window-height="1017"
   id="namedview69"
   showgrid="false"
   inkscape:zoom="0.4609375"
   inkscape:cx="-98.732864"
   inkscape:cy="164.88136"
   inkscape:window-x="-8"
   inkscape:window-y="-8"
   inkscape:window-maximized="1"
   inkscape:current-layer="Capa_1" />

<path
   style="fill:#cc4444"
   d="M 484.202,0 H 27.756 C 12.450001,0 0,12.453 0,27.758 v 262.775 c 0,15.305 12.450001,27.757 27.756,27.757 h 456.446 c 15.306,0 27.756,-12.452 27.756,-27.757 V 27.758 C 511.958,12.452 499.508,0 484.202,0 Z"
   id="path8"
   inkscape:connector-curvature="0" />
<path
   style="fill:#b53c3c"
   d="M 28.78,290.533 V 27.758 C 28.78,12.452 41.231,0 56.536,0 H 27.756 C 12.450001,0 0,12.453 0,27.758 v 262.775 c 0,15.305 12.450001,27.757 27.756,27.757 h 28.78 c -15.305,0 -27.756,-12.452 -27.756,-27.757 z"
   id="path10"
   inkscape:connector-curvature="0" />
<path
   style="fill:#f95c4b"
   d="m 483.178,277.148 c 0,6.827 -5.535,12.362 -12.362,12.362 H 41.142001 C 34.315001,289.51 28.78,283.975 28.78,277.148 V 41.144 c 0,-6.827 5.535001,-12.362 12.362001,-12.362 H 470.816 c 6.827,0 12.362,5.535 12.362,12.362 z"
   id="path12"
   inkscape:connector-curvature="0" />
<path
   style="fill:#f44b34"
   d="M 54.191,277.148 V 41.144 c 0,-6.827 5.535001,-12.362 12.362,-12.362 H 41.142001 C 34.315001,28.782 28.78,34.317 28.78,41.144 v 236.004 c 0,6.827 5.535001,12.362 12.362001,12.362 H 66.553 c -6.828,0 -12.362,-5.535 -12.362,-12.362 z"
   id="path14"
   inkscape:connector-curvature="0" />
<g
   id="g24"
   transform="translate(-0.021,-193.71)">
	<path
   style="fill:#f5f5f5"
   d="m 150.32,380.649 h -42.603 v -16.827 h 34.641 c 2.276,0 4.121,-1.845 4.121,-4.121 v -13.436 c 0,-2.276 -1.845,-4.121 -4.121,-4.121 H 107.717 V 325.06 h 41.251 c 2.276,0 4.121,-1.845 4.121,-4.121 v -17.3 c 0,-2.276 -1.845,-4.121 -4.121,-4.121 H 82.541 c -2.276,0 -4.121,1.845 -4.121,4.121 v 98.429 c 0,2.276 1.845,4.121 4.121,4.121 h 67.78 c 2.276,0 4.121,-1.845 4.121,-4.121 v -17.3 c -0.001,-2.274 -1.846,-4.119 -4.122,-4.119 z"
   id="path16"
   inkscape:connector-curvature="0" />
	<path
   style="fill:#f5f5f5"
   d="m 267.113,299.519 h -21.522 c -1.474,0 -2.835,0.787 -3.571,2.064 l -18.191,31.589 -18.193,-31.589 c -0.735,-1.278 -2.097,-2.064 -3.571,-2.064 h -21.672 c -3.268,0 -5.246,3.646 -3.442,6.386 l 31.403,47.701 -30.234,46.207 c -0.828,1.267 -0.896,2.885 -0.177,4.216 0.72,1.331 2.111,2.161 3.625,2.161 h 21.675 c 1.485,0 2.856,-0.8 3.587,-2.093 l 16.998,-30.058 16.996,30.058 c 0.731,1.293 2.102,2.093 3.587,2.093 h 21.525 c 1.514,0 2.905,-0.83 3.625,-2.161 0.72,-1.331 0.652,-2.95 -0.177,-4.216 l -30.232,-46.207 31.402,-47.701 c 0.834,-1.266 0.905,-2.886 0.186,-4.22 -0.719,-1.334 -2.111,-2.166 -3.627,-2.166 z"
   id="path18"
   inkscape:connector-curvature="0" />
	<path
   style="fill:#f5f5f5"
   d="m 318.779,299.519 h -21.056 c -2.276,0 -4.121,1.845 -4.121,4.121 v 98.429 c 0,2.276 1.845,4.121 4.121,4.121 h 21.056 c 2.276,0 4.121,-1.845 4.121,-4.121 V 303.64 c 0,-2.276 -1.846,-4.121 -4.121,-4.121 z"
   id="path20"
   inkscape:connector-curvature="0" />
	<path
   style="fill:#f5f5f5"
   d="m 429.459,299.519 h -82.504 c -2.276,0 -4.121,1.845 -4.121,4.121 v 17.3 c 0,2.276 1.845,4.121 4.121,4.121 h 26.678 v 77.009 c 0,2.276 1.845,4.121 4.121,4.121 h 21.056 c 2.276,0 4.121,-1.845 4.121,-4.121 v -77.01 h 26.529 c 2.276,0 4.121,-1.845 4.121,-4.121 v -17.3 c -0.001,-2.275 -1.846,-4.12 -4.122,-4.12 z"
   id="path22"
   inkscape:connector-curvature="0" />
</g>


<g
   id="g38"
   transform="translate(-2.1904915,-102.59136)">
</g>
<g
   id="g40"
   transform="translate(-2.1904915,-102.59136)">
</g>
<g
   id="g42"
   transform="translate(-2.1904915,-102.59136)">
</g>
<g
   id="g44"
   transform="translate(-2.1904915,-102.59136)">
</g>
<g
   id="g46"
   transform="translate(-2.1904915,-102.59136)">
</g>
<g
   id="g48"
   transform="translate(-2.1904915,-102.59136)">
</g>
<g
   id="g50"
   transform="translate(-2.1904915,-102.59136)">
</g>
<g
   id="g52"
   transform="translate(-2.1904915,-102.59136)">
</g>
<g
   id="g54"
   transform="translate(-2.1904915,-102.59136)">
</g>
<g
   id="g56"
   transform="translate(-2.1904915,-102.59136)">
</g>
<g
   id="g58"
   transform="translate(-2.1904915,-102.59136)">
</g>
<g
   id="g60"
   transform="translate(-2.1904915,-102.59136)">
</g>
<g
   id="g62"
   transform="translate(-2.1904915,-102.59136)">
</g>
<g
   id="g64"
   transform="translate(-2.1904915,-102.59136)">
</g>
<g
   id="g66"
   transform="translate(-2.1904915,-102.59136)">
</g>
</svg>