<?xml version="1.0" encoding="UTF-8" standalone="no"?>
<!-- Generator: Adobe Illustrator 19.0.0, SVG Export Plug-In . SVG Version: 6.00 Build 0)  -->

<svg
   xmlns:dc="http://purl.org/dc/elements/1.1/"
   xmlns:cc="http://creativecommons.org/ns#"
   xmlns:rdf="http://www.w3.org/1999/02/22-rdf-syntax-ns#"
   xmlns:svg="http://www.w3.org/2000/svg"
   xmlns="http://www.w3.org/2000/svg"
   xmlns:sodipodi="http://sodipodi.sourceforge.net/DTD/sodipodi-0.dtd"
   xmlns:inkscape="http://www.inkscape.org/namespaces/inkscape"
   version="1.1"
   id="Layer_1"
   x="0px"
   y="0px"
   viewBox="0 0 126.923 120.016"
   xml:space="preserve"
   sodipodi:docname="trainers.svg"
   width="126.923"
   height="120.016"
   inkscape:version="0.92.3 (2405546, 2018-03-11)"><metadata
   id="metadata193"><rdf:RDF><cc:Work
       rdf:about=""><dc:format>image/svg+xml</dc:format><dc:type
         rdf:resource="http://purl.org/dc/dcmitype/StillImage" /></cc:Work></rdf:RDF></metadata><defs
   id="defs191" /><sodipodi:namedview
   pagecolor="#ffffff"
   bordercolor="#666666"
   borderopacity="1"
   objecttolerance="10"
   gridtolerance="10"
   guidetolerance="10"
   inkscape:pageopacity="0"
   inkscape:pageshadow="2"
   inkscape:window-width="1920"
   inkscape:window-height="1017"
   id="namedview189"
   showgrid="false"
   inkscape:zoom="1.8593804"
   inkscape:cx="63.462002"
   inkscape:cy="60.007998"
   inkscape:window-x="-8"
   inkscape:window-y="-8"
   inkscape:window-maximized="1"
   inkscape:current-layer="Layer_1" />
<g
   id="g156"
   transform="translate(0,-3.454)">
	<g
   id="g4">
		<path
   style="fill:#7bc7ff"
   d="m 109.66,29.78 c 0,1.709 -1.385,3.094 -3.094,3.094 H 59.254 c -1.709,0 -3.094,-1.385 -3.094,-3.094 v 0 c 0,-1.709 1.385,-3.095 3.094,-3.095 h 47.312 c 1.709,0.001 3.094,1.386 3.094,3.095 z"
   id="path2"
   inkscape:connector-curvature="0" />
	</g>
	<g
   id="g8">
		<path
   style="fill:#33363a"
   d="M 106.566,34.374 H 59.254 c -2.533,0 -4.594,-2.061 -4.594,-4.594 0,-2.533 2.061,-4.595 4.594,-4.595 h 47.312 c 2.533,0 4.594,2.062 4.594,4.595 0,2.533 -2.061,4.594 -4.594,4.594 z M 59.254,28.186 c -0.879,0 -1.594,0.716 -1.594,1.595 0,0.879 0.715,1.594 1.594,1.594 h 47.312 c 0.879,0 1.594,-0.715 1.594,-1.594 0,-0.879 -0.715,-1.595 -1.594,-1.595 z"
   id="path6"
   inkscape:connector-curvature="0" />
	</g>
	<g
   id="g12">
		<path
   style="fill:#ba8663"
   d="m 86.346,32.309 c 0,10.335 -8.377,18.712 -18.711,18.712 h -8.346 c -10.334,0 -18.711,-8.377 -18.711,-18.712 V 27.37 c 0,-10.334 8.377,-18.711 18.711,-18.711 h 8.346 c 10.334,0 18.711,8.377 18.711,18.711 z"
   id="path10"
   inkscape:connector-curvature="0" />
	</g>
	<g
   id="g16">
		<path
   style="fill:#a57555"
   d="m 86.346,37.059 c 0,10.335 -8.377,18.712 -18.711,18.712 h -8.346 c -10.334,0 -18.711,-8.377 -18.711,-18.712 V 32.12 c 0,-10.334 8.377,-18.711 18.711,-18.711 h 8.346 c 10.334,0 18.711,8.377 18.711,18.711 z"
   id="path14"
   inkscape:connector-curvature="0" />
	</g>
	<g
   id="g20">
		<path
   style="fill:#33363a"
   d="m 67.635,52.521 h -8.346 c -11.145,0 -20.211,-9.067 -20.211,-20.212 V 27.37 c 0,-11.145 9.066,-20.211 20.211,-20.211 h 8.346 c 11.145,0 20.211,9.066 20.211,20.211 v 4.938 c 0,11.145 -9.067,20.213 -20.211,20.213 z M 59.289,10.159 c -9.49,0 -17.211,7.721 -17.211,17.211 v 4.938 c 0,9.49 7.721,17.212 17.211,17.212 h 8.346 c 9.49,0 17.211,-7.722 17.211,-17.212 V 27.37 c 0,-9.49 -7.721,-17.211 -17.211,-17.211 z"
   id="path18"
   inkscape:connector-curvature="0" />
	</g>
	<g
   id="g42">
		<g
   id="g24">
			<polygon
   style="fill:#4b6466"
   points="1.5,121.97 125.424,121.97 125.424,89.36 63.463,70.753 1.5,89.36 "
   id="polygon22" />
		</g>
		<g
   id="g28">
			<polygon
   style="fill:#7bc7ff"
   points="1.5,121.97 125.424,121.97 125.424,89.36 63.463,70.753 1.5,89.36 "
   id="polygon26" />
		</g>
		<g
   id="g32">
			<polygon
   style="fill:#12b2b2"
   points="1.5,121.97 125.424,121.97 125.424,89.36 63.463,87.939 1.5,89.36 "
   id="polygon30" />
		</g>
		<g
   id="g36">
			<polygon
   style="fill:#0086ff"
   points="1.5,121.97 125.424,121.97 125.424,89.36 63.463,87.939 1.5,89.36 "
   id="polygon34" />
		</g>
		<g
   id="g40">
			<path
   style="fill:#33363a"
   d="M 125.424,123.47 H 1.5 c -0.829,0 -1.5,-0.672 -1.5,-1.5 V 89.36 C 0,88.698 0.434,88.114 1.068,87.923 L 63.031,69.316 c 0.282,-0.084 0.581,-0.084 0.863,0 l 61.961,18.607 c 0.634,0.19 1.068,0.774 1.068,1.437 v 32.609 c 0.001,0.829 -0.671,1.501 -1.499,1.501 z M 3,120.47 H 123.924 V 90.476 L 63.463,72.319 3,90.477 Z"
   id="path38"
   inkscape:connector-curvature="0" />
		</g>
	</g>
	<g
   id="g46">
		<polygon
   style="fill:#33363a"
   points="63.462,93.101 79.763,84.981 77.133,54.069 49.792,54.069 47.162,84.981 "
   id="polygon44" />
	</g>
	<g
   id="g50">
		<path
   style="fill:#33363a"
   d="m 63.462,96.101 c -0.264,0 -0.527,-0.069 -0.762,-0.208 L 46.4,86.273 C 45.903,85.98 45.619,85.428 45.668,84.854 l 2.629,-30.911 c 0.066,-0.776 0.715,-1.373 1.495,-1.373 h 27.342 c 0.779,0 1.429,0.597 1.495,1.373 l 2.629,30.911 c 0.049,0.574 -0.236,1.126 -0.732,1.419 l -16.301,9.62 c -0.236,0.138 -0.499,0.208 -0.763,0.208 z M 48.737,84.168 63.462,92.858 78.188,84.168 75.755,55.569 H 51.169 Z"
   id="path48"
   inkscape:connector-curvature="0" />
	</g>
	<g
   id="g54">
		<polygon
   style="fill:#f9c19b"
   points="63.462,87.939 79.763,84.981 77.133,54.069 49.792,54.069 47.162,84.981 "
   id="polygon52" />
	</g>
	<g
   id="g58">
		<path
   style="fill:#efa37d"
   d="M 77.133,54.069 H 49.792 l -1.5,17.625 10.448,8.549 c 1.374,1.123 3.049,1.686 4.723,1.686 1.675,0 3.35,-0.563 4.723,-1.686 l 10.448,-8.549 z"
   id="path56"
   inkscape:connector-curvature="0" />
	</g>
	<g
   id="g62">
		<path
   style="fill:#33363a"
   d="m 63.462,90.151 c -0.11,0 -0.221,-0.013 -0.33,-0.037 l -16.3,-3.671 C 46.101,86.279 45.603,85.6 45.667,84.853 l 2.629,-30.911 c 0.066,-0.776 0.715,-1.373 1.495,-1.373 h 27.342 c 0.779,0 1.429,0.597 1.495,1.373 l 2.629,30.911 c 0.063,0.747 -0.434,1.426 -1.165,1.59 l -16.301,3.671 c -0.108,0.025 -0.219,0.037 -0.329,0.037 z M 48.768,83.805 63.462,87.115 78.157,83.805 75.755,55.57 H 51.169 Z"
   id="path60"
   inkscape:connector-curvature="0" />
	</g>
	<g
   id="g66">
		<path
   style="fill:#f9c19b"
   d="m 41.565,48.591 c -4.275,0 -7.739,-3.465 -7.739,-7.74 0,-4.273 3.464,-7.739 7.739,-7.739"
   id="path64"
   inkscape:connector-curvature="0" />
	</g>
	<g
   id="g70">
		<path
   style="fill:#f9c19b"
   d="m 85.359,33.111 c 4.275,0 7.74,3.466 7.74,7.739 0,4.276 -3.465,7.74 -7.74,7.74"
   id="path68"
   inkscape:connector-curvature="0" />
	</g>
	<g
   id="g74">
		<path
   style="fill:#a57555"
   d="M 78.13,25.964 64.768,23.587 c -0.864,-0.152 -1.748,-0.152 -2.612,0 l -13.361,2.377 c -3.559,0.634 -6.152,3.728 -6.152,7.344 v 22.01 c 0,2.239 1.003,4.357 2.736,5.774 L 58.74,72.024 c 1.374,1.124 3.049,1.687 4.723,1.687 1.675,0 3.35,-0.563 4.723,-1.687 L 81.548,61.092 c 1.731,-1.417 2.735,-3.535 2.735,-5.774 v -22.01 c -0.001,-3.616 -2.594,-6.71 -6.153,-7.344 z"
   id="path72"
   inkscape:connector-curvature="0" />
	</g>
	<g
   id="g78">
		<path
   style="fill:#f9c19b"
   d="M 78.13,25.964 64.768,32.44 c -0.864,-0.154 -1.748,-0.154 -2.612,0 L 48.795,25.964 c -3.559,0.634 -6.152,3.728 -6.152,7.344 v 22.01 c 0,2.239 1.003,4.357 2.736,5.774 L 58.74,72.024 c 1.374,1.124 3.049,1.687 4.723,1.687 1.675,0 3.35,-0.563 4.723,-1.687 L 81.548,61.092 c 1.731,-1.417 2.735,-3.535 2.735,-5.774 v -22.01 c -0.001,-3.616 -2.594,-6.71 -6.153,-7.344 z"
   id="path76"
   inkscape:connector-curvature="0" />
	</g>
	<g
   id="g82">
		<path
   style="fill:#efa37d"
   d="m 63.462,73.71 c 1.675,0 3.35,-0.563 4.723,-1.687 L 81.547,61.091 c 1.731,-1.417 2.735,-3.535 2.735,-5.774 v -22.01 c 0,-3.615 -2.593,-6.71 -6.152,-7.344 L 64.768,23.586 c -0.864,-0.152 -0.442,-0.152 -1.306,0"
   id="path80"
   inkscape:connector-curvature="0" />
	</g>
	<path
   style="fill:#33363a"
   d="m 94.599,40.851 c 0,-5.095 -4.145,-9.239 -9.24,-9.239 -0.288,0 -0.554,0.085 -0.783,0.226 -0.095,-0.019 -0.193,-0.03 -0.294,-0.03 -0.829,0 -1.5,0.672 -1.5,1.5 v 22.01 c 0,1.796 -0.796,3.478 -2.185,4.613 L 67.235,70.862 c -2.121,1.738 -5.421,1.738 -7.546,0 L 46.328,59.931 c -1.389,-1.136 -2.186,-2.817 -2.186,-4.613 v -22.01 c 0,-0.828 -0.671,-1.5 -1.5,-1.5 -0.101,0 -0.199,0.011 -0.294,0.03 -0.228,-0.141 -0.495,-0.226 -0.783,-0.226 -5.095,0 -9.239,4.145 -9.239,9.239 0,4.952 3.919,8.995 8.816,9.219 v 5.248 c 0,2.699 1.198,5.228 3.286,6.936 l 13.361,10.932 c 1.597,1.306 3.611,2.025 5.673,2.025 2.063,0 4.078,-0.72 5.673,-2.025 L 82.498,62.254 c 2.087,-1.709 3.285,-4.236 3.285,-6.936 V 50.07 c 4.897,-0.224 8.816,-4.268 8.816,-9.219 z m -59.273,0 c 0,-3.298 2.573,-5.999 5.816,-6.218 V 47.07 c -3.243,-0.22 -5.816,-2.922 -5.816,-6.219 z m 50.456,6.218 V 34.633 c 3.243,0.219 5.816,2.92 5.816,6.218 0,3.298 -2.573,5.999 -5.816,6.218 z"
   id="path84"
   inkscape:connector-curvature="0" />
	<g
   id="g94">
		<g
   id="g88">
			<path
   style="fill:#33363a"
   d="m 12.221,123.126 c -0.672,0 -1.284,-0.454 -1.454,-1.136 L 5.434,100.683 c -0.201,-0.804 0.287,-1.618 1.091,-1.819 0.803,-0.198 1.618,0.287 1.819,1.091 l 5.333,21.307 c 0.201,0.804 -0.287,1.618 -1.091,1.819 -0.122,0.03 -0.245,0.045 -0.365,0.045 z"
   id="path86"
   inkscape:connector-curvature="0" />
		</g>
		<g
   id="g92">
			<path
   style="fill:#33363a"
   d="m 114.703,123.126 c -0.121,0 -0.243,-0.015 -0.365,-0.045 -0.804,-0.201 -1.292,-1.016 -1.091,-1.819 l 5.333,-21.307 c 0.201,-0.805 1.014,-1.289 1.819,-1.091 0.804,0.201 1.292,1.016 1.091,1.819 l -5.333,21.307 c -0.17,0.682 -0.782,1.136 -1.454,1.136 z"
   id="path90"
   inkscape:connector-curvature="0" />
		</g>
	</g>
	<g
   id="g112">
		<g
   id="g108">
			<g
   id="g98">
				<path
   style="fill:#7bc7ff"
   d="M 74.071,4.954 H 52.853 c -8.108,0 -14.681,6.572 -14.681,14.68 v 13.874 h 50.58 V 19.634 c 0,-8.108 -6.572,-14.68 -14.681,-14.68 z"
   id="path96"
   inkscape:connector-curvature="0" />
			</g>
			<g
   id="g102">
				<path
   style="fill:#0086ff"
   d="M 74.071,11.687 H 52.853 c -8.108,0 -14.681,6.572 -14.681,14.681 v 7.141 h 50.58 v -7.141 c 0,-8.109 -6.572,-14.681 -14.681,-14.681 z"
   id="path100"
   inkscape:connector-curvature="0" />
			</g>
			<g
   id="g106">
				<path
   style="fill:#33363a"
   d="m 88.752,35.008 h -50.58 c -0.829,0 -1.5,-0.672 -1.5,-1.5 V 19.634 c 0,-8.922 7.259,-16.18 16.181,-16.18 h 21.219 c 8.922,0 16.181,7.258 16.181,16.18 v 13.874 c -0.001,0.828 -0.672,1.5 -1.501,1.5 z m -49.08,-3 h 47.58 V 19.634 c 0,-7.268 -5.913,-13.18 -13.181,-13.18 H 52.853 c -7.268,0 -13.181,5.912 -13.181,13.18 z"
   id="path104"
   inkscape:connector-curvature="0" />
			</g>
		</g>
		<path
   style="fill:#33363a"
   d="m 69.462,21.098 h -12 c -0.829,0 -1.5,0.672 -1.5,1.5 v 4.67 c 0,0.828 0.671,1.5 1.5,1.5 h 12 c 0.829,0 1.5,-0.672 1.5,-1.5 v -4.67 c 0,-0.828 -0.671,-1.5 -1.5,-1.5 z"
   id="path110"
   inkscape:connector-curvature="0" />
	</g>
	<g
   id="g122">
		<g
   id="g116">
			<path
   style="fill:#33363a"
   d="m 35.024,88.351 c -0.704,0 -1.332,-0.497 -1.471,-1.213 -0.159,-0.813 0.372,-1.601 1.186,-1.76 l 12.834,-2.5 c 0.813,-0.155 1.601,0.373 1.759,1.186 0.159,0.813 -0.372,1.601 -1.186,1.76 l -12.834,2.5 c -0.097,0.018 -0.193,0.027 -0.288,0.027 z"
   id="path114"
   inkscape:connector-curvature="0" />
		</g>
		<g
   id="g120">
			<path
   style="fill:#33363a"
   d="m 91.9,88.351 c -0.095,0 -0.191,-0.009 -0.288,-0.027 l -12.834,-2.5 c -0.813,-0.159 -1.344,-0.946 -1.186,-1.76 0.158,-0.813 0.945,-1.341 1.759,-1.186 l 12.834,2.5 c 0.813,0.159 1.344,0.946 1.186,1.76 -0.14,0.716 -0.767,1.213 -1.471,1.213 z"
   id="path118"
   inkscape:connector-curvature="0" />
		</g>
	</g>
	<g
   id="g154">
		<g
   id="g126">
			<path
   style="fill:#ff8f8f"
   d="m 45.338,114.486 c 0,-10.009 8.115,-18.124 18.123,-18.124 10.009,0 18.124,8.115 18.124,18.124"
   id="path124"
   inkscape:connector-curvature="0" />
		</g>
		<g
   id="g130">
			<path
   style="fill:#ff1a1a"
   d="m 45.338,114.486 c 0,-7.662 8.115,-13.885 18.123,-13.885 10.009,0 18.124,6.223 18.124,13.885"
   id="path128"
   inkscape:connector-curvature="0" />
		</g>
		<g
   id="g134">
			<line
   style="fill:#ffffff"
   x1="81.584999"
   y1="114.486"
   x2="45.338001"
   y2="114.486"
   id="line132" />
		</g>
		<g
   id="g138">
			<line
   style="fill:#dce6ea"
   x1="81.584999"
   y1="114.486"
   x2="45.338001"
   y2="114.486"
   id="line136" />
		</g>
		<path
   style="fill:#33363a"
   d="m 63.461,94.862 c -10.82,0 -19.623,8.804 -19.623,19.624 0,0.828 0.671,1.5 1.5,1.5 h 36.247 c 0.829,0 1.5,-0.672 1.5,-1.5 0,-10.82 -8.803,-19.624 -19.624,-19.624 z m 0,3 c 8.66,0 15.786,6.658 16.548,15.124 H 46.914 c 0.762,-8.465 7.888,-15.124 16.547,-15.124 z"
   id="path140"
   inkscape:connector-curvature="0" />
		<g
   id="g144">
			<path
   style="fill:#ffffff"
   d="m 67.698,110.288 c 2.341,2.339 2.341,6.136 0,8.472 -2.338,2.342 -6.133,2.342 -8.474,0 -2.339,-2.336 -2.339,-6.133 0,-8.472 2.341,-2.341 6.136,-2.341 8.474,0 z"
   id="path142"
   inkscape:connector-curvature="0" />
		</g>
		<g
   id="g148">
			<path
   style="fill:#d8e5ea"
   d="m 59.224,118.76 c -2.339,-2.336 -2.339,-6.133 0,-8.472 2.341,-2.341 6.136,-2.341 8.474,0"
   id="path146"
   inkscape:connector-curvature="0" />
		</g>
		<g
   id="g152">
			<path
   style="fill:#33363a"
   d="m 63.462,122.017 c -2.001,0 -3.883,-0.78 -5.299,-2.196 -1.414,-1.412 -2.193,-3.293 -2.193,-5.295 0,-2.002 0.779,-3.884 2.193,-5.298 1.416,-1.416 3.297,-2.195 5.298,-2.195 2.001,0 3.882,0.779 5.296,2.194 v 0 c 1.417,1.416 2.196,3.298 2.195,5.301 0,2.001 -0.78,3.882 -2.196,5.294 -1.412,1.414 -3.292,2.194 -5.293,2.195 10e-4,0 0,0 -10e-4,0 z m 0,-11.985 c -1.2,0 -2.328,0.468 -3.177,1.316 -0.848,0.848 -1.314,1.976 -1.314,3.177 0,1.199 0.466,2.327 1.314,3.173 0.85,0.851 1.978,1.317 3.178,1.318 0,0 10e-4,0 10e-4,0 1.199,-0.001 2.326,-0.469 3.173,-1.316 0.85,-0.849 1.317,-1.975 1.317,-3.174 0,-1.2 -0.467,-2.329 -1.315,-3.177 0,-0.001 -10e-4,-0.001 -10e-4,-0.002 -0.849,-0.847 -1.976,-1.315 -3.176,-1.315 z"
   id="path150"
   inkscape:connector-curvature="0" />
		</g>
	</g>
</g>
<g
   id="g158"
   transform="translate(0,-3.454)">
</g>
<g
   id="g160"
   transform="translate(0,-3.454)">
</g>
<g
   id="g162"
   transform="translate(0,-3.454)">
</g>
<g
   id="g164"
   transform="translate(0,-3.454)">
</g>
<g
   id="g166"
   transform="translate(0,-3.454)">
</g>
<g
   id="g168"
   transform="translate(0,-3.454)">
</g>
<g
   id="g170"
   transform="translate(0,-3.454)">
</g>
<g
   id="g172"
   transform="translate(0,-3.454)">
</g>
<g
   id="g174"
   transform="translate(0,-3.454)">
</g>
<g
   id="g176"
   transform="translate(0,-3.454)">
</g>
<g
   id="g178"
   transform="translate(0,-3.454)">
</g>
<g
   id="g180"
   transform="translate(0,-3.454)">
</g>
<g
   id="g182"
   transform="translate(0,-3.454)">
</g>
<g
   id="g184"
   transform="translate(0,-3.454)">
</g>
<g
   id="g186"
   transform="translate(0,-3.454)">
</g>
</svg>